<svg width="752" height="584" viewBox="0 0 752 584" fill="none" xmlns="http://www.w3.org/2000/svg">
<rect width="752" height="583.806" rx="12" fill="white"/>
<rect x="0.5" y="0.5" width="751" height="582.806" rx="11.5" stroke="black" stroke-opacity="0.27"/>
<path fill-rule="evenodd" clip-rule="evenodd" d="M482.55 112.238C457.062 66.6916 414.015 55.7674 382.244 60.716L380.682 50.4321C415.842 44.9424 463.415 56.9538 491.478 107.104L482.55 112.238Z" fill="#1064EE" fill-opacity="0.76"/>
<path d="M376 269.806C308.453 269.806 253.5 214.268 253.5 146C253.5 113.021 266.256 82.2369 289.418 59.3194C312.439 36.5446 343.187 24 376 24C408.812 24 439.561 36.5446 462.582 59.3194C485.744 82.2369 498.5 113.021 498.5 146C498.5 214.268 443.547 269.806 376 269.806ZM376 34.4031C345.896 34.4031 317.704 45.8933 296.618 66.7539C275.45 87.6985 263.793 115.841 263.793 146C263.793 208.53 314.129 259.403 376 259.403C437.871 259.403 488.207 208.53 488.207 146C488.207 115.841 476.55 87.6985 455.38 66.7539C434.295 45.8933 406.104 34.4031 376 34.4031Z" fill="#1064EE" fill-opacity="0.76"/>
<path fill-rule="evenodd" clip-rule="evenodd" d="M384.535 182.356C349.463 182.356 320.783 153.309 320.603 117.604C320.422 81.7169 346.308 53.9164 383.556 49.9987L384.614 60.3193C347.29 64.2454 330.714 91.8936 330.844 117.551C330.995 147.562 355.081 171.978 384.534 171.978C399.273 171.978 413.016 166.05 423.236 155.281L430.618 162.476C418.451 175.297 402.085 182.356 384.535 182.356Z" fill="#1064EE" fill-opacity="0.76"/>
<path fill-rule="evenodd" clip-rule="evenodd" d="M360.119 245.383V234.985C380.82 234.985 398.835 228.098 410.844 215.591C420.491 205.544 425.4 192.568 425.041 178.064C424.281 147.426 400.701 123.424 371.358 123.424C356.623 123.424 342.882 129.365 332.664 140.153L325.283 132.943C337.45 120.1 353.813 113.026 371.358 113.026C406.3 113.026 434.377 141.479 435.277 177.804C435.708 195.175 429.794 210.752 418.176 222.851C404.222 237.381 383.604 245.383 360.119 245.383Z" fill="#1064EE" fill-opacity="0.76"/>
<path fill-rule="evenodd" clip-rule="evenodd" d="M356.47 245.383C285.125 245.383 263.76 195.732 262.863 193.56L272.29 189.446C273.115 191.408 293.297 237.44 362.342 234.763L362.736 245.258C360.605 245.342 358.517 245.383 356.47 245.383Z" fill="#1064EE" fill-opacity="0.76"/>
<path d="M381.462 107.511C371.136 107.511 362.736 99.0292 362.736 88.6028C362.736 78.1765 371.136 69.6947 381.462 69.6947C391.788 69.6947 400.188 78.1765 400.188 88.6028C400.188 99.0283 391.788 107.511 381.462 107.511ZM381.462 80.1836C376.865 80.1836 373.124 83.9593 373.124 88.602C373.124 93.2447 376.865 97.0204 381.462 97.0204C386.059 97.0204 389.799 93.2447 389.799 88.602C389.799 83.9593 386.058 80.1836 381.462 80.1836Z" fill="#1064EE" fill-opacity="0.76"/>
<path d="M297.974 124.843C287.648 124.843 279.248 116.362 279.248 105.935C279.248 95.509 287.648 87.0272 297.974 87.0272C308.3 87.0272 316.701 95.509 316.701 105.935C316.701 116.361 308.3 124.843 297.974 124.843ZM297.974 97.5161C293.377 97.5161 289.637 101.292 289.637 105.934C289.637 110.577 293.377 114.353 297.974 114.353C302.572 114.353 306.312 110.577 306.312 105.934C306.312 101.292 302.572 97.5161 297.974 97.5161Z" fill="#1064EE" fill-opacity="0.76"/>
<path d="M434.909 130.358C421.357 130.358 410.331 119.226 410.331 105.541C410.331 91.857 421.357 80.7244 434.909 80.7244C448.462 80.7244 459.487 91.857 459.487 105.541C459.487 119.226 448.462 130.358 434.909 130.358ZM434.909 91.1793C427.066 91.1793 420.685 97.6214 420.685 105.541C420.685 113.461 427.066 119.903 434.909 119.903C442.753 119.903 449.133 113.461 449.133 105.541C449.133 97.6223 442.753 91.1793 434.909 91.1793Z" fill="#1064EE" fill-opacity="0.76"/>
<path d="M298.365 185.507C284.812 185.507 273.787 174.374 273.787 160.691C273.787 147.006 284.812 135.873 298.365 135.873C311.917 135.873 322.943 147.006 322.943 160.691C322.943 174.374 311.916 185.507 298.365 185.507ZM298.365 146.328C290.521 146.328 284.141 152.77 284.141 160.691C284.141 168.609 290.521 175.052 298.365 175.052C306.208 175.052 312.588 168.61 312.588 160.691C312.588 152.77 306.208 146.328 298.365 146.328Z" fill="#1064EE" fill-opacity="0.76"/>
<path d="M461.048 179.204C449.431 179.204 439.981 169.663 439.981 157.933C439.981 146.203 449.431 136.661 461.048 136.661C472.664 136.661 482.115 146.203 482.115 157.933C482.115 169.663 472.664 179.204 461.048 179.204ZM461.048 147.032C455.095 147.032 450.252 151.921 450.252 157.934C450.252 163.946 455.096 168.835 461.048 168.835C467.001 168.835 471.844 163.946 471.844 157.934C471.844 151.921 467.001 147.032 461.048 147.032Z" fill="#1064EE" fill-opacity="0.76"/>
<path d="M338.547 223.323C326.931 223.323 317.481 213.781 317.481 202.053C317.481 190.323 326.931 180.78 338.547 180.78C350.164 180.78 359.615 190.322 359.615 202.053C359.615 213.78 350.164 223.323 338.547 223.323ZM338.547 191.151C332.595 191.151 327.751 196.04 327.751 202.053C327.751 208.063 332.595 212.952 338.547 212.952C344.5 212.952 349.344 208.063 349.344 202.053C349.344 196.04 344.5 191.151 338.547 191.151Z" fill="#1064EE" fill-opacity="0.76"/>
<path d="M279.591 330.715V359.806H276.182L260.33 336.965H260.045V359.806H256.523V330.715H259.932L275.841 353.613H276.125V330.715H279.591ZM295.049 360.26C293.079 360.26 291.351 359.792 289.864 358.854C288.387 357.917 287.232 356.605 286.398 354.92C285.575 353.234 285.163 351.264 285.163 349.01C285.163 346.738 285.575 344.754 286.398 343.059C287.232 341.364 288.387 340.047 289.864 339.11C291.351 338.172 293.079 337.704 295.049 337.704C297.019 337.704 298.742 338.172 300.219 339.11C301.706 340.047 302.862 341.364 303.685 343.059C304.519 344.754 304.935 346.738 304.935 349.01C304.935 351.264 304.519 353.234 303.685 354.92C302.862 356.605 301.706 357.917 300.219 358.854C298.742 359.792 297.019 360.26 295.049 360.26ZM295.049 357.249C296.545 357.249 297.776 356.866 298.742 356.099C299.708 355.331 300.423 354.323 300.887 353.073C301.351 351.823 301.583 350.469 301.583 349.01C301.583 347.552 301.351 346.193 300.887 344.934C300.423 343.674 299.708 342.656 298.742 341.88C297.776 341.103 296.545 340.715 295.049 340.715C293.553 340.715 292.322 341.103 291.356 341.88C290.39 342.656 289.675 343.674 289.211 344.934C288.747 346.193 288.515 347.552 288.515 349.01C288.515 350.469 288.747 351.823 289.211 353.073C289.675 354.323 290.39 355.331 291.356 356.099C292.322 356.866 293.553 357.249 295.049 357.249ZM322.95 359.806H319.257L329.939 330.715H333.575L344.257 359.806H340.564L331.871 335.317H331.643L322.95 359.806ZM324.314 348.442H339.2V351.567H324.314V348.442ZM348.788 359.806V330.715H358.618C360.9 330.715 362.766 331.127 364.214 331.951C365.673 332.765 366.752 333.868 367.453 335.26C368.154 336.652 368.504 338.206 368.504 339.92C368.504 341.634 368.154 343.191 367.453 344.593C366.762 345.994 365.692 347.112 364.243 347.945C362.794 348.769 360.938 349.181 358.675 349.181H351.629V346.056H358.561C360.124 346.056 361.378 345.786 362.325 345.246C363.272 344.706 363.959 343.977 364.385 343.059C364.821 342.131 365.038 341.084 365.038 339.92C365.038 338.755 364.821 337.713 364.385 336.795C363.959 335.876 363.268 335.156 362.311 334.635C361.355 334.105 360.086 333.84 358.504 333.84H352.311V359.806H348.788ZM373.724 359.806V337.988H377.077V359.806H373.724ZM375.429 334.351C374.776 334.351 374.212 334.129 373.739 333.684C373.275 333.239 373.043 332.704 373.043 332.079C373.043 331.454 373.275 330.919 373.739 330.474C374.212 330.028 374.776 329.806 375.429 329.806C376.082 329.806 376.641 330.028 377.105 330.474C377.579 330.919 377.815 331.454 377.815 332.079C377.815 332.704 377.579 333.239 377.105 333.684C376.641 334.129 376.082 334.351 375.429 334.351ZM386.171 330.715V333.272C386.171 334.048 386.029 334.877 385.745 335.758C385.47 336.629 385.063 337.476 384.523 338.3C383.993 339.115 383.349 339.825 382.592 340.431L380.773 338.954C381.37 338.101 381.886 337.216 382.322 336.297C382.767 335.369 382.989 334.38 382.989 333.329V330.715H386.171ZM402.968 342.874L399.957 343.726C399.767 343.224 399.488 342.737 399.119 342.263C398.759 341.78 398.266 341.383 397.641 341.07C397.016 340.758 396.216 340.601 395.241 340.601C393.906 340.601 392.793 340.909 391.903 341.525C391.022 342.131 390.582 342.902 390.582 343.84C390.582 344.673 390.885 345.331 391.491 345.814C392.097 346.297 393.044 346.7 394.332 347.022L397.57 347.817C399.521 348.291 400.975 349.015 401.931 349.991C402.888 350.956 403.366 352.202 403.366 353.726C403.366 354.976 403.006 356.094 402.286 357.079C401.576 358.063 400.582 358.84 399.303 359.408C398.025 359.976 396.538 360.26 394.843 360.26C392.618 360.26 390.776 359.777 389.317 358.812C387.859 357.846 386.936 356.435 386.548 354.579L389.729 353.783C390.032 354.957 390.605 355.838 391.448 356.425C392.3 357.012 393.413 357.306 394.786 357.306C396.349 357.306 397.589 356.974 398.508 356.312C399.436 355.639 399.9 354.834 399.9 353.897C399.9 353.139 399.635 352.505 399.104 351.993C398.574 351.473 397.76 351.084 396.661 350.829L393.025 349.976C391.027 349.503 389.559 348.769 388.621 347.775C387.693 346.771 387.229 345.516 387.229 344.01C387.229 342.779 387.575 341.69 388.266 340.743C388.967 339.796 389.919 339.053 391.121 338.513C392.334 337.974 393.707 337.704 395.241 337.704C397.4 337.704 399.095 338.177 400.326 339.124C401.567 340.071 402.447 341.321 402.968 342.874ZM421.821 367.988C421.253 367.988 420.746 367.94 420.301 367.846C419.856 367.76 419.548 367.675 419.378 367.59L420.23 364.635C421.045 364.844 421.764 364.92 422.389 364.863C423.014 364.806 423.568 364.527 424.051 364.025C424.544 363.532 424.993 362.732 425.401 361.624L426.026 359.92L417.957 337.988H421.594L427.616 355.374H427.844L433.866 337.988H437.503L428.241 362.988C427.825 364.115 427.309 365.047 426.693 365.786C426.078 366.534 425.363 367.088 424.548 367.448C423.743 367.808 422.834 367.988 421.821 367.988ZM450.294 360.26C448.192 360.26 446.378 359.796 444.854 358.868C443.339 357.931 442.169 356.624 441.345 354.948C440.531 353.262 440.124 351.302 440.124 349.067C440.124 346.832 440.531 344.863 441.345 343.158C442.169 341.444 443.315 340.109 444.783 339.152C446.26 338.187 447.983 337.704 449.953 337.704C451.089 337.704 452.212 337.893 453.32 338.272C454.428 338.651 455.436 339.266 456.345 340.118C457.254 340.961 457.979 342.079 458.518 343.471C459.058 344.863 459.328 346.577 459.328 348.613V350.033H442.51V347.135H455.919C455.919 345.904 455.673 344.806 455.18 343.84C454.697 342.874 454.006 342.112 453.107 341.553C452.216 340.994 451.165 340.715 449.953 340.715C448.618 340.715 447.463 341.046 446.487 341.709C445.521 342.363 444.778 343.215 444.257 344.266C443.736 345.317 443.476 346.444 443.476 347.647V349.579C443.476 351.226 443.76 352.623 444.328 353.769C444.906 354.905 445.706 355.772 446.729 356.368C447.751 356.956 448.94 357.249 450.294 357.249C451.175 357.249 451.97 357.126 452.68 356.88C453.4 356.624 454.02 356.245 454.541 355.743C455.062 355.232 455.464 354.598 455.749 353.84L458.987 354.749C458.646 355.848 458.073 356.813 457.268 357.647C456.464 358.471 455.469 359.115 454.286 359.579C453.102 360.033 451.771 360.26 450.294 360.26ZM473.916 337.988V340.829H462.609V337.988H473.916ZM465.905 332.76H469.257V353.556C469.257 354.503 469.394 355.213 469.669 355.687C469.953 356.151 470.313 356.463 470.749 356.624C471.194 356.776 471.662 356.851 472.155 356.851C472.524 356.851 472.827 356.832 473.064 356.795C473.301 356.747 473.49 356.709 473.632 356.681L474.314 359.692C474.087 359.777 473.769 359.863 473.362 359.948C472.955 360.043 472.439 360.09 471.814 360.09C470.867 360.09 469.939 359.886 469.03 359.479C468.13 359.072 467.382 358.452 466.786 357.618C466.198 356.785 465.905 355.734 465.905 354.465V332.76ZM481.402 360.033C480.701 360.033 480.1 359.782 479.598 359.28C479.096 358.778 478.845 358.177 478.845 357.476C478.845 356.776 479.096 356.174 479.598 355.672C480.1 355.17 480.701 354.92 481.402 354.92C482.103 354.92 482.704 355.17 483.206 355.672C483.708 356.174 483.959 356.776 483.959 357.476C483.959 357.94 483.84 358.367 483.604 358.755C483.376 359.143 483.069 359.456 482.68 359.692C482.302 359.92 481.875 360.033 481.402 360.033ZM494.406 330.715L494.122 351.624H490.827L490.543 330.715H494.406ZM492.474 360.033C491.774 360.033 491.172 359.782 490.67 359.28C490.169 358.778 489.918 358.177 489.918 357.476C489.918 356.776 490.169 356.174 490.67 355.672C491.172 355.17 491.774 354.92 492.474 354.92C493.175 354.92 493.777 355.17 494.278 355.672C494.78 356.174 495.031 356.776 495.031 357.476C495.031 357.94 494.913 358.367 494.676 358.755C494.449 359.143 494.141 359.456 493.753 359.692C493.374 359.92 492.948 360.033 492.474 360.033Z" fill="black"/>
<path d="M255.545 426.806H252.727C252.561 425.995 252.269 425.283 251.852 424.67C251.443 424.056 250.943 423.541 250.352 423.124C249.769 422.7 249.121 422.382 248.409 422.17C247.697 421.957 246.955 421.851 246.182 421.851C244.773 421.851 243.496 422.207 242.352 422.92C241.216 423.632 240.311 424.681 239.636 426.067C238.97 427.454 238.636 429.154 238.636 431.17C238.636 433.185 238.97 434.885 239.636 436.272C240.311 437.658 241.216 438.707 242.352 439.42C243.496 440.132 244.773 440.488 246.182 440.488C246.955 440.488 247.697 440.382 248.409 440.17C249.121 439.957 249.769 439.643 250.352 439.226C250.943 438.802 251.443 438.283 251.852 437.67C252.269 437.048 252.561 436.336 252.727 435.533H255.545C255.333 436.723 254.947 437.787 254.386 438.726C253.826 439.666 253.129 440.465 252.295 441.124C251.462 441.776 250.527 442.272 249.489 442.613C248.458 442.954 247.356 443.124 246.182 443.124C244.197 443.124 242.432 442.639 240.886 441.67C239.341 440.7 238.125 439.321 237.239 437.533C236.352 435.745 235.909 433.624 235.909 431.17C235.909 428.715 236.352 426.594 237.239 424.806C238.125 423.018 239.341 421.639 240.886 420.67C242.432 419.7 244.197 419.215 246.182 419.215C247.356 419.215 248.458 419.385 249.489 419.726C250.527 420.067 251.462 420.567 252.295 421.226C253.129 421.878 253.826 422.673 254.386 423.613C254.947 424.545 255.333 425.609 255.545 426.806ZM259.736 442.806V425.351H262.327V427.988H262.509C262.827 427.124 263.402 426.423 264.236 425.885C265.069 425.348 266.009 425.079 267.054 425.079C267.251 425.079 267.497 425.082 267.793 425.09C268.088 425.098 268.312 425.109 268.463 425.124V427.851C268.372 427.829 268.164 427.795 267.838 427.749C267.52 427.696 267.183 427.67 266.827 427.67C265.978 427.67 265.221 427.848 264.554 428.204C263.895 428.552 263.372 429.037 262.986 429.658C262.607 430.272 262.418 430.973 262.418 431.76V442.806H259.736ZM278.429 443.17C276.747 443.17 275.296 442.798 274.077 442.056C272.865 441.306 271.929 440.26 271.27 438.92C270.618 437.571 270.293 436.003 270.293 434.215C270.293 432.427 270.618 430.851 271.27 429.488C271.929 428.117 272.846 427.048 274.02 426.283C275.202 425.51 276.58 425.124 278.156 425.124C279.065 425.124 279.963 425.276 280.849 425.579C281.736 425.882 282.543 426.374 283.27 427.056C283.997 427.73 284.577 428.624 285.009 429.738C285.44 430.851 285.656 432.223 285.656 433.851V434.988H272.202V432.67H282.929C282.929 431.685 282.732 430.806 282.338 430.033C281.952 429.26 281.399 428.651 280.679 428.204C279.967 427.757 279.126 427.533 278.156 427.533C277.088 427.533 276.164 427.798 275.384 428.329C274.611 428.851 274.016 429.533 273.599 430.374C273.183 431.215 272.974 432.117 272.974 433.079V434.624C272.974 435.942 273.202 437.06 273.656 437.976C274.118 438.885 274.759 439.579 275.577 440.056C276.395 440.526 277.346 440.76 278.429 440.76C279.134 440.76 279.77 440.662 280.338 440.465C280.914 440.26 281.41 439.957 281.827 439.556C282.243 439.147 282.565 438.639 282.793 438.033L285.384 438.76C285.111 439.639 284.652 440.412 284.009 441.079C283.365 441.738 282.569 442.253 281.622 442.624C280.675 442.988 279.611 443.17 278.429 443.17ZM294.872 443.215C293.766 443.215 292.762 443.007 291.861 442.59C290.959 442.166 290.243 441.556 289.713 440.76C289.183 439.957 288.918 438.988 288.918 437.851C288.918 436.851 289.115 436.041 289.509 435.42C289.902 434.791 290.429 434.298 291.088 433.942C291.747 433.586 292.474 433.321 293.27 433.147C294.073 432.965 294.88 432.821 295.69 432.715C296.751 432.579 297.611 432.476 298.27 432.408C298.937 432.332 299.421 432.207 299.724 432.033C300.035 431.859 300.19 431.556 300.19 431.124V431.033C300.19 429.912 299.884 429.041 299.27 428.42C298.664 427.798 297.743 427.488 296.509 427.488C295.228 427.488 294.224 427.768 293.497 428.329C292.77 428.889 292.259 429.488 291.963 430.124L289.418 429.215C289.872 428.154 290.478 427.329 291.236 426.738C292.001 426.139 292.834 425.723 293.736 425.488C294.645 425.245 295.539 425.124 296.418 425.124C296.978 425.124 297.622 425.192 298.349 425.329C299.084 425.457 299.793 425.726 300.474 426.135C301.164 426.545 301.736 427.162 302.19 427.988C302.645 428.813 302.872 429.92 302.872 431.306V442.806H300.19V440.442H300.054C299.872 440.821 299.569 441.226 299.145 441.658C298.721 442.09 298.156 442.457 297.452 442.76C296.747 443.063 295.887 443.215 294.872 443.215ZM295.281 440.806C296.342 440.806 297.236 440.598 297.963 440.181C298.698 439.764 299.251 439.226 299.622 438.567C300.001 437.908 300.19 437.215 300.19 436.488V434.033C300.077 434.17 299.827 434.295 299.44 434.408C299.062 434.514 298.622 434.609 298.122 434.692C297.63 434.768 297.149 434.836 296.679 434.897C296.217 434.95 295.842 434.995 295.554 435.033C294.857 435.124 294.205 435.272 293.599 435.476C293.001 435.673 292.516 435.973 292.145 436.374C291.781 436.768 291.599 437.306 291.599 437.988C291.599 438.92 291.944 439.624 292.634 440.101C293.33 440.571 294.213 440.806 295.281 440.806ZM315.358 425.351V427.624H306.312V425.351H315.358ZM308.949 421.17H311.631V437.806C311.631 438.563 311.741 439.132 311.96 439.51C312.188 439.882 312.475 440.132 312.824 440.26C313.18 440.382 313.555 440.442 313.949 440.442C314.244 440.442 314.487 440.427 314.676 440.397C314.866 440.359 315.017 440.329 315.131 440.306L315.676 442.715C315.494 442.783 315.241 442.851 314.915 442.92C314.589 442.995 314.176 443.033 313.676 443.033C312.919 443.033 312.176 442.87 311.449 442.545C310.729 442.219 310.131 441.723 309.653 441.056C309.184 440.389 308.949 439.548 308.949 438.533V421.17ZM326.523 443.17C324.841 443.17 323.39 442.798 322.17 442.056C320.958 441.306 320.023 440.26 319.364 438.92C318.712 437.571 318.386 436.003 318.386 434.215C318.386 432.427 318.712 430.851 319.364 429.488C320.023 428.117 320.939 427.048 322.114 426.283C323.295 425.51 324.674 425.124 326.25 425.124C327.159 425.124 328.057 425.276 328.943 425.579C329.83 425.882 330.636 426.374 331.364 427.056C332.091 427.73 332.67 428.624 333.102 429.738C333.534 430.851 333.75 432.223 333.75 433.851V434.988H320.295V432.67H331.023C331.023 431.685 330.826 430.806 330.432 430.033C330.045 429.26 329.492 428.651 328.773 428.204C328.061 427.757 327.22 427.533 326.25 427.533C325.182 427.533 324.258 427.798 323.477 428.329C322.705 428.851 322.11 429.533 321.693 430.374C321.277 431.215 321.068 432.117 321.068 433.079V434.624C321.068 435.942 321.295 437.06 321.75 437.976C322.212 438.885 322.852 439.579 323.67 440.056C324.489 440.526 325.439 440.76 326.523 440.76C327.227 440.76 327.864 440.662 328.432 440.465C329.008 440.26 329.504 439.957 329.92 439.556C330.337 439.147 330.659 438.639 330.886 438.033L333.477 438.76C333.205 439.639 332.746 440.412 332.102 441.079C331.458 441.738 330.663 442.253 329.716 442.624C328.769 442.988 327.705 443.17 326.523 443.17ZM351.966 443.215C350.86 443.215 349.856 443.007 348.955 442.59C348.053 442.166 347.337 441.556 346.807 440.76C346.277 439.957 346.011 438.988 346.011 437.851C346.011 436.851 346.208 436.041 346.602 435.42C346.996 434.791 347.523 434.298 348.182 433.942C348.841 433.586 349.568 433.321 350.364 433.147C351.167 432.965 351.973 432.821 352.784 432.715C353.845 432.579 354.705 432.476 355.364 432.408C356.03 432.332 356.515 432.207 356.818 432.033C357.129 431.859 357.284 431.556 357.284 431.124V431.033C357.284 429.912 356.977 429.041 356.364 428.42C355.758 427.798 354.837 427.488 353.602 427.488C352.322 427.488 351.318 427.768 350.591 428.329C349.864 428.889 349.352 429.488 349.057 430.124L346.511 429.215C346.966 428.154 347.572 427.329 348.33 426.738C349.095 426.139 349.928 425.723 350.83 425.488C351.739 425.245 352.633 425.124 353.511 425.124C354.072 425.124 354.716 425.192 355.443 425.329C356.178 425.457 356.886 425.726 357.568 426.135C358.258 426.545 358.83 427.162 359.284 427.988C359.739 428.813 359.966 429.92 359.966 431.306V442.806H357.284V440.442H357.148C356.966 440.821 356.663 441.226 356.239 441.658C355.814 442.09 355.25 442.457 354.545 442.76C353.841 443.063 352.981 443.215 351.966 443.215ZM352.375 440.806C353.436 440.806 354.33 440.598 355.057 440.181C355.792 439.764 356.345 439.226 356.716 438.567C357.095 437.908 357.284 437.215 357.284 436.488V434.033C357.17 434.17 356.92 434.295 356.534 434.408C356.155 434.514 355.716 434.609 355.216 434.692C354.723 434.768 354.242 434.836 353.773 434.897C353.311 434.95 352.936 434.995 352.648 435.033C351.951 435.124 351.299 435.272 350.693 435.476C350.095 435.673 349.61 435.973 349.239 436.374C348.875 436.768 348.693 437.306 348.693 437.988C348.693 438.92 349.038 439.624 349.727 440.101C350.424 440.571 351.307 440.806 352.375 440.806ZM367.543 432.306V442.806H364.861V425.351H367.452V428.079H367.679C368.088 427.192 368.709 426.48 369.543 425.942C370.376 425.397 371.452 425.124 372.77 425.124C373.952 425.124 374.986 425.367 375.872 425.851C376.759 426.329 377.448 427.056 377.94 428.033C378.433 429.003 378.679 430.23 378.679 431.715V442.806H375.997V431.897C375.997 430.526 375.641 429.457 374.929 428.692C374.217 427.92 373.24 427.533 371.997 427.533C371.141 427.533 370.376 427.719 369.702 428.09C369.035 428.461 368.509 429.003 368.122 429.715C367.736 430.427 367.543 431.291 367.543 432.306ZM393.898 442.806H390.943L399.489 419.533H402.398L410.943 442.806H407.989L401.034 423.215H400.852L393.898 442.806ZM394.989 433.715H406.898V436.215H394.989V433.715ZM414.568 442.806V419.533H422.432C424.258 419.533 425.75 419.863 426.909 420.522C428.076 421.173 428.939 422.056 429.5 423.17C430.061 424.283 430.341 425.526 430.341 426.897C430.341 428.268 430.061 429.514 429.5 430.635C428.947 431.757 428.091 432.651 426.932 433.317C425.773 433.976 424.288 434.306 422.477 434.306H416.841V431.806H422.386C423.636 431.806 424.64 431.59 425.398 431.158C426.155 430.726 426.705 430.143 427.045 429.408C427.394 428.666 427.568 427.829 427.568 426.897C427.568 425.965 427.394 425.132 427.045 424.397C426.705 423.662 426.152 423.086 425.386 422.67C424.621 422.245 423.606 422.033 422.341 422.033H417.386V442.806H414.568ZM437.699 419.533V442.806H434.881V419.533H437.699ZM454.668 432.306V442.806H451.986V419.533H454.668V428.079H454.895C455.304 427.177 455.918 426.461 456.736 425.931C457.562 425.393 458.66 425.124 460.031 425.124C461.221 425.124 462.262 425.363 463.156 425.84C464.05 426.31 464.743 427.033 465.236 428.01C465.736 428.98 465.986 430.215 465.986 431.715V442.806H463.304V431.897C463.304 430.51 462.944 429.438 462.224 428.681C461.512 427.916 460.524 427.533 459.259 427.533C458.38 427.533 457.592 427.719 456.895 428.09C456.205 428.461 455.66 429.003 455.259 429.715C454.865 430.427 454.668 431.291 454.668 432.306ZM478.21 443.17C476.528 443.17 475.078 442.798 473.858 442.056C472.646 441.306 471.71 440.26 471.051 438.92C470.4 437.571 470.074 436.003 470.074 434.215C470.074 432.427 470.4 430.851 471.051 429.488C471.71 428.117 472.627 427.048 473.801 426.283C474.983 425.51 476.362 425.124 477.938 425.124C478.847 425.124 479.744 425.276 480.631 425.579C481.517 425.882 482.324 426.374 483.051 427.056C483.778 427.73 484.358 428.624 484.79 429.738C485.222 430.851 485.438 432.223 485.438 433.851V434.988H471.983V432.67H482.71C482.71 431.685 482.513 430.806 482.119 430.033C481.733 429.26 481.18 428.651 480.46 428.204C479.748 427.757 478.907 427.533 477.938 427.533C476.869 427.533 475.945 427.798 475.165 428.329C474.392 428.851 473.797 429.533 473.381 430.374C472.964 431.215 472.756 432.117 472.756 433.079V434.624C472.756 435.942 472.983 437.06 473.438 437.976C473.9 438.885 474.54 439.579 475.358 440.056C476.176 440.526 477.127 440.76 478.21 440.76C478.915 440.76 479.551 440.662 480.119 440.465C480.695 440.26 481.191 439.957 481.608 439.556C482.025 439.147 482.347 438.639 482.574 438.033L485.165 438.76C484.892 439.639 484.434 440.412 483.79 441.079C483.146 441.738 482.35 442.253 481.403 442.624C480.456 442.988 479.392 443.17 478.21 443.17ZM489.517 442.806V425.351H492.108V427.988H492.29C492.608 427.124 493.184 426.423 494.017 425.885C494.85 425.348 495.79 425.079 496.835 425.079C497.032 425.079 497.278 425.082 497.574 425.09C497.869 425.098 498.093 425.109 498.244 425.124V427.851C498.153 427.829 497.945 427.795 497.619 427.749C497.301 427.696 496.964 427.67 496.608 427.67C495.759 427.67 495.002 427.848 494.335 428.204C493.676 428.552 493.153 429.037 492.767 429.658C492.388 430.272 492.199 430.973 492.199 431.76V442.806H489.517ZM508.21 443.17C506.528 443.17 505.078 442.798 503.858 442.056C502.646 441.306 501.71 440.26 501.051 438.92C500.4 437.571 500.074 436.003 500.074 434.215C500.074 432.427 500.4 430.851 501.051 429.488C501.71 428.117 502.627 427.048 503.801 426.283C504.983 425.51 506.362 425.124 507.938 425.124C508.847 425.124 509.744 425.276 510.631 425.579C511.517 425.882 512.324 426.374 513.051 427.056C513.778 427.73 514.358 428.624 514.79 429.738C515.222 430.851 515.438 432.223 515.438 433.851V434.988H501.983V432.67H512.71C512.71 431.685 512.513 430.806 512.119 430.033C511.733 429.26 511.18 428.651 510.46 428.204C509.748 427.757 508.907 427.533 507.938 427.533C506.869 427.533 505.945 427.798 505.165 428.329C504.392 428.851 503.797 429.533 503.381 430.374C502.964 431.215 502.756 432.117 502.756 433.079V434.624C502.756 435.942 502.983 437.06 503.438 437.976C503.9 438.885 504.54 439.579 505.358 440.056C506.176 440.526 507.127 440.76 508.21 440.76C508.915 440.76 509.551 440.662 510.119 440.465C510.695 440.26 511.191 439.957 511.608 439.556C512.025 439.147 512.347 438.639 512.574 438.033L515.165 438.76C514.892 439.639 514.434 440.412 513.79 441.079C513.146 441.738 512.35 442.253 511.403 442.624C510.456 442.988 509.392 443.17 508.21 443.17Z" fill="black" fill-opacity="0.56"/>
<rect x="303.5" y="508.306" width="145" height="51" rx="11.5" fill="white"/>
<rect x="303.5" y="508.306" width="145" height="51" rx="11.5" stroke="#075A9E"/>
<path d="M331.159 530.806H329.045C328.92 530.198 328.702 529.664 328.389 529.204C328.082 528.743 327.707 528.357 327.264 528.045C326.827 527.726 326.341 527.488 325.807 527.329C325.273 527.17 324.716 527.09 324.136 527.09C323.08 527.09 322.122 527.357 321.264 527.891C320.412 528.425 319.733 529.212 319.227 530.252C318.727 531.292 318.477 532.567 318.477 534.079C318.477 535.59 318.727 536.866 319.227 537.905C319.733 538.945 320.412 539.732 321.264 540.266C322.122 540.8 323.08 541.067 324.136 541.067C324.716 541.067 325.273 540.988 325.807 540.829C326.341 540.67 326.827 540.434 327.264 540.121C327.707 539.803 328.082 539.414 328.389 538.954C328.702 538.488 328.92 537.954 329.045 537.351H331.159C331 538.243 330.71 539.042 330.29 539.746C329.869 540.451 329.347 541.05 328.722 541.545C328.097 542.033 327.395 542.405 326.616 542.661C325.844 542.917 325.017 543.045 324.136 543.045C322.648 543.045 321.324 542.681 320.165 541.954C319.006 541.226 318.094 540.192 317.429 538.851C316.764 537.51 316.432 535.92 316.432 534.079C316.432 532.238 316.764 530.647 317.429 529.306C318.094 527.965 319.006 526.931 320.165 526.204C321.324 525.476 322.648 525.113 324.136 525.113C325.017 525.113 325.844 525.241 326.616 525.496C327.395 525.752 328.097 526.127 328.722 526.621C329.347 527.11 329.869 527.706 330.29 528.411C330.71 529.11 331 529.908 331.159 530.806ZM334.402 542.806V529.715H336.345V531.692H336.481C336.72 531.045 337.152 530.519 337.777 530.116C338.402 529.712 339.106 529.51 339.89 529.51C340.038 529.51 340.223 529.513 340.444 529.519C340.666 529.525 340.834 529.533 340.947 529.545V531.59C340.879 531.573 340.723 531.547 340.479 531.513C340.24 531.474 339.987 531.454 339.72 531.454C339.084 531.454 338.515 531.587 338.015 531.854C337.521 532.116 337.129 532.479 336.839 532.945C336.555 533.405 336.413 533.931 336.413 534.522V542.806H334.402ZM348.522 543.079C347.26 543.079 346.172 542.8 345.258 542.243C344.348 541.681 343.647 540.897 343.152 539.891C342.664 538.88 342.419 537.704 342.419 536.363C342.419 535.022 342.664 533.84 343.152 532.817C343.647 531.789 344.334 530.988 345.215 530.414C346.101 529.834 347.135 529.545 348.317 529.545C348.999 529.545 349.672 529.658 350.337 529.885C351.002 530.113 351.607 530.482 352.152 530.993C352.698 531.499 353.133 532.17 353.456 533.005C353.78 533.84 353.942 534.868 353.942 536.09V536.942H343.851V535.204H351.897C351.897 534.465 351.749 533.806 351.454 533.226C351.164 532.647 350.749 532.189 350.209 531.854C349.675 531.519 349.044 531.351 348.317 531.351C347.516 531.351 346.823 531.55 346.238 531.948C345.658 532.34 345.212 532.851 344.9 533.482C344.587 534.113 344.431 534.789 344.431 535.51V536.67C344.431 537.658 344.601 538.496 344.942 539.184C345.289 539.866 345.769 540.385 346.383 540.743C346.996 541.096 347.709 541.272 348.522 541.272C349.05 541.272 349.527 541.198 349.954 541.05C350.385 540.897 350.758 540.67 351.07 540.368C351.383 540.062 351.624 539.681 351.794 539.226L353.738 539.772C353.533 540.431 353.189 541.01 352.706 541.51C352.223 542.005 351.627 542.391 350.917 542.67C350.206 542.942 349.408 543.079 348.522 543.079ZM360.954 543.113C360.125 543.113 359.372 542.956 358.696 542.644C358.019 542.326 357.483 541.868 357.085 541.272C356.687 540.67 356.488 539.942 356.488 539.09C356.488 538.34 356.636 537.732 356.931 537.266C357.227 536.795 357.622 536.425 358.116 536.158C358.61 535.891 359.156 535.692 359.752 535.562C360.355 535.425 360.96 535.317 361.568 535.238C362.363 535.135 363.008 535.059 363.502 535.008C364.002 534.951 364.366 534.857 364.593 534.726C364.826 534.596 364.943 534.368 364.943 534.045V533.976C364.943 533.135 364.713 532.482 364.252 532.016C363.798 531.55 363.108 531.317 362.181 531.317C361.221 531.317 360.468 531.527 359.923 531.948C359.377 532.368 358.994 532.817 358.772 533.295L356.863 532.613C357.204 531.817 357.659 531.198 358.227 530.755C358.801 530.306 359.426 529.993 360.102 529.817C360.784 529.635 361.454 529.545 362.113 529.545C362.534 529.545 363.017 529.596 363.562 529.698C364.113 529.795 364.644 529.996 365.156 530.303C365.673 530.61 366.102 531.073 366.443 531.692C366.784 532.312 366.954 533.141 366.954 534.181V542.806H364.943V541.033H364.84C364.704 541.317 364.477 541.621 364.159 541.945C363.84 542.269 363.417 542.545 362.889 542.772C362.36 542.999 361.715 543.113 360.954 543.113ZM361.261 541.306C362.056 541.306 362.727 541.15 363.272 540.837C363.823 540.525 364.238 540.121 364.517 539.627C364.801 539.133 364.943 538.613 364.943 538.067V536.226C364.858 536.329 364.67 536.422 364.38 536.508C364.096 536.587 363.767 536.658 363.392 536.721C363.022 536.777 362.662 536.829 362.309 536.874C361.963 536.914 361.681 536.948 361.465 536.976C360.943 537.045 360.454 537.155 360 537.309C359.551 537.456 359.187 537.681 358.909 537.982C358.636 538.277 358.5 538.681 358.5 539.192C358.5 539.891 358.758 540.42 359.275 540.777C359.798 541.13 360.46 541.306 361.261 541.306ZM376.418 529.715V531.42H369.634V529.715H376.418ZM371.612 526.579H373.623V539.056C373.623 539.624 373.705 540.05 373.87 540.334C374.041 540.613 374.257 540.8 374.518 540.897C374.785 540.988 375.066 541.033 375.362 541.033C375.583 541.033 375.765 541.022 375.907 540.999C376.049 540.971 376.163 540.948 376.248 540.931L376.657 542.738C376.521 542.789 376.33 542.84 376.086 542.891C375.842 542.948 375.532 542.976 375.157 542.976C374.589 542.976 374.032 542.854 373.487 542.61C372.947 542.366 372.498 541.993 372.14 541.493C371.788 540.993 371.612 540.363 371.612 539.601V526.579ZM384.892 543.079C383.631 543.079 382.543 542.8 381.628 542.243C380.719 541.681 380.017 540.897 379.523 539.891C379.034 538.88 378.79 537.704 378.79 536.363C378.79 535.022 379.034 533.84 379.523 532.817C380.017 531.789 380.705 530.988 381.585 530.414C382.472 529.834 383.506 529.545 384.688 529.545C385.369 529.545 386.043 529.658 386.707 529.885C387.372 530.113 387.977 530.482 388.523 530.993C389.068 531.499 389.503 532.17 389.827 533.005C390.151 533.84 390.312 534.868 390.312 536.09V536.942H380.222V535.204H388.267C388.267 534.465 388.119 533.806 387.824 533.226C387.534 532.647 387.119 532.189 386.58 531.854C386.045 531.519 385.415 531.351 384.688 531.351C383.886 531.351 383.193 531.55 382.608 531.948C382.028 532.34 381.582 532.851 381.27 533.482C380.957 534.113 380.801 534.789 380.801 535.51V536.67C380.801 537.658 380.972 538.496 381.312 539.184C381.659 539.866 382.139 540.385 382.753 540.743C383.366 541.096 384.08 541.272 384.892 541.272C385.42 541.272 385.898 541.198 386.324 541.05C386.756 540.897 387.128 540.67 387.44 540.368C387.753 540.062 387.994 539.681 388.165 539.226L390.108 539.772C389.903 540.431 389.56 541.01 389.077 541.51C388.594 542.005 387.997 542.391 387.287 542.67C386.577 542.942 385.778 543.079 384.892 543.079ZM401.311 542.806H399.095L405.504 525.351H407.686L414.095 542.806H411.879L406.663 528.113H406.527L401.311 542.806ZM402.129 535.988H411.061V537.863H402.129V535.988ZM416.914 542.806V525.351H422.811C424.181 525.351 425.3 525.599 426.169 526.093C427.044 526.581 427.692 527.243 428.113 528.079C428.533 528.914 428.743 529.846 428.743 530.874C428.743 531.902 428.533 532.837 428.113 533.678C427.698 534.519 427.056 535.189 426.186 535.689C425.317 536.184 424.203 536.431 422.845 536.431H418.618V534.556H422.777C423.715 534.556 424.468 534.394 425.036 534.07C425.604 533.746 426.016 533.309 426.272 532.758C426.533 532.201 426.664 531.573 426.664 530.874C426.664 530.175 426.533 529.55 426.272 528.999C426.016 528.448 425.601 528.016 425.027 527.704C424.453 527.385 423.692 527.226 422.743 527.226H419.027V542.806H416.914ZM434.362 525.351V542.806H432.248V525.351H434.362Z" fill="#075A9E"/>
</svg>
