<svg width="153" height="57" viewBox="0 0 153 57" fill="none" xmlns="http://www.w3.org/2000/svg">
<path d="M10.1381 24.0861C10.8746 23.902 11.5344 23.7179 12.1175 23.5337C12.7313 23.3496 13.3297 23.1655 13.9128 22.9813C14.4959 22.7972 15.0636 22.6131 15.616 22.429C16.1991 22.2141 16.8283 21.984 17.5034 21.7385L17.8717 21.8305V25.7894C18.9765 24.9608 19.9125 24.2856 20.6797 23.7639C21.4469 23.2115 22.1221 22.7972 22.7051 22.521C23.3189 22.2141 23.8713 22.0147 24.3623 21.9226C24.8534 21.7998 25.3904 21.7385 25.9735 21.7385C28.8276 21.7385 30.6842 23.2269 31.5435 26.2037C33.0166 24.6385 34.4283 23.5031 35.7786 22.7972C37.1596 22.0914 38.6173 21.7385 40.1517 21.7385C44.2333 21.7385 46.2741 24.838 46.2741 31.0371V41.901C46.2741 43.8957 47.0413 44.9392 48.5758 45.0312L49.9107 45.1693V45.9059H38.4025V45.1693C39.1697 45.0773 39.7681 44.9699 40.1977 44.8471C40.6581 44.6937 40.9957 44.4942 41.2105 44.2487C41.456 43.9725 41.6094 43.6042 41.6708 43.1439C41.7629 42.6835 41.8089 42.0698 41.8089 41.3025V30.2546C41.8089 29.1498 41.7475 28.2291 41.6248 27.4926C41.502 26.7561 41.2872 26.173 40.9803 25.7433C40.6734 25.283 40.2591 24.9608 39.7374 24.7766C39.2464 24.5618 38.6326 24.4544 37.8961 24.4544C36.6685 24.4544 35.6098 24.7153 34.7198 25.237C33.8298 25.728 32.9859 26.5412 32.188 27.6767V40.9343C32.188 41.7322 32.234 42.4073 32.3261 42.9597C32.4488 43.4814 32.6483 43.9111 32.9245 44.2487C33.2314 44.5555 33.6304 44.7857 34.1214 44.9392C34.6124 45.0619 35.2262 45.1386 35.9627 45.1693V45.9059H24.1782V45.1693C24.9147 45.1079 25.5132 45.0159 25.9735 44.8931C26.4645 44.7704 26.8328 44.5709 27.0783 44.2947C27.3545 44.0185 27.5386 43.6502 27.6307 43.1899C27.7228 42.7296 27.7688 42.1311 27.7688 41.3946V29.9784C27.7688 26.2957 26.6333 24.4544 24.3623 24.4544C23.3803 24.4544 22.3522 24.6692 21.2781 25.0989C20.2347 25.5285 19.4061 26.0502 18.7923 26.664C18.332 27.1857 18.1018 27.4926 18.1018 27.5847V42.4073C18.1018 43.4508 18.332 44.1566 18.7923 44.5249C19.2834 44.8931 20.2347 45.1079 21.6464 45.1693V45.9059H10V45.1693C10.7365 45.1386 11.335 45.0619 11.7953 44.9392C12.2863 44.8164 12.6699 44.6169 12.9461 44.3407C13.2223 44.0645 13.4065 43.6963 13.4985 43.2359C13.6213 42.7449 13.6827 42.1465 13.6827 41.4406V28.1371C13.6827 26.8481 13.5446 25.9735 13.2684 25.5132C13.0228 25.0222 12.5472 24.7766 11.8413 24.7766C11.5344 24.7766 11.2582 24.8073 11.0127 24.8687C10.7979 24.8994 10.5064 24.9454 10.1381 25.0068V24.0861Z" fill="white"/>
<path d="M69.5137 40.3819C69.5137 41.5481 69.6211 42.3613 69.8359 42.8216C70.0508 43.2513 70.465 43.4661 71.0788 43.4661C71.7847 43.4661 72.5519 43.1439 73.3805 42.4994V43.8344C72.4905 44.8164 71.7079 45.4916 71.0328 45.8598C70.3576 46.2281 69.5751 46.4122 68.6851 46.4122C67.611 46.4122 66.8131 46.1207 66.2914 45.5376C65.8004 44.9238 65.4935 43.9111 65.3707 42.4994C63.7749 43.8804 62.3786 44.8778 61.1817 45.4916C59.9848 46.1053 58.8187 46.4122 57.6832 46.4122C56.026 46.4122 54.6757 45.8905 53.6323 44.8471C52.6195 43.8037 52.1132 42.4534 52.1132 40.7962C52.1132 39.9676 52.2666 39.139 52.5735 38.3104C52.9111 37.4511 53.3867 36.7606 54.0005 36.2389C54.5529 35.7479 55.0593 35.3336 55.5196 34.996C56.0106 34.6277 56.6398 34.2595 57.407 33.8912C58.1742 33.4923 59.1716 33.0473 60.3991 32.5562C61.6267 32.0652 63.2532 31.4054 65.2787 30.5768V27.2164C65.2787 25.774 64.9257 24.6846 64.2199 23.948C63.5447 23.2115 62.5627 22.8432 61.2738 22.8432C60.1997 22.8432 59.2943 23.1041 58.5578 23.6258C57.852 24.1168 57.4991 24.7153 57.4991 25.4211C57.4991 25.6973 57.5297 26.0502 57.5911 26.4799C57.6832 26.9095 57.7292 27.2624 57.7292 27.5386C57.7292 28.1524 57.4837 28.6741 56.9927 29.1038C56.5324 29.5334 55.9953 29.7482 55.3815 29.7482C54.7677 29.7482 54.2307 29.5334 53.7704 29.1038C53.3407 28.6434 53.1259 28.1064 53.1259 27.4926C53.1259 26.8174 53.31 26.1269 53.6783 25.4211C54.0773 24.7153 54.6143 24.0861 55.2895 23.5337C55.9953 22.92 56.9313 22.4443 58.0975 22.1067C59.2943 21.7691 60.5833 21.6004 61.9643 21.6004C63.5601 21.6004 64.895 21.8766 65.9692 22.429C67.0739 22.9507 67.9179 23.6872 68.501 24.6385C68.8692 25.2523 69.1301 25.9735 69.2835 26.8021C69.437 27.6 69.5137 28.6895 69.5137 30.0705V40.3819ZM65.2787 31.8657C63.6828 32.4488 62.3172 33.0166 61.1817 33.569C60.0769 34.0907 59.1716 34.6431 58.4657 35.2262C57.7906 35.7786 57.2996 36.377 56.9927 37.0215C56.6858 37.6659 56.5324 38.3718 56.5324 39.139V39.3691C56.5324 39.9215 56.6244 40.4586 56.8086 40.9803C56.9927 41.4713 57.2382 41.901 57.5451 42.2692C57.8827 42.6375 58.2663 42.929 58.6959 43.1439C59.1256 43.3587 59.5705 43.4661 60.0309 43.4661C60.5833 43.4661 61.197 43.3587 61.8722 43.1439C62.578 42.8984 63.2378 42.6068 63.8516 42.2692C64.4654 41.9317 64.849 41.5787 65.0024 41.2105C65.1866 40.8422 65.2787 40.2591 65.2787 39.4612V31.8657Z" fill="white"/>
<path d="M89.3468 29.426C88.7637 27.063 88.0426 25.3904 87.1833 24.4084C86.324 23.4263 85.1425 22.9353 83.6387 22.9353C82.4112 22.9353 81.4291 23.2729 80.6926 23.948C79.9561 24.5925 79.5878 25.4518 79.5878 26.5259C79.5878 28.0296 80.3397 29.2265 81.8434 30.1165L87.5055 33.4769C89.1013 34.4283 90.2368 35.3796 90.912 36.331C91.5871 37.2516 91.9247 38.3718 91.9247 39.6914C91.9247 40.612 91.7252 41.4867 91.3263 42.3153C90.9273 43.1439 90.3903 43.8651 89.7151 44.4788C89.0706 45.0619 88.3034 45.5376 87.4134 45.9059C86.5235 46.2434 85.5721 46.4122 84.5594 46.4122C84.007 46.4122 83.4086 46.3662 82.7641 46.2741C82.1196 46.2127 81.4138 46.09 80.6466 45.9059C80.0328 45.7524 79.5571 45.645 79.2195 45.5836C78.882 45.5222 78.5597 45.4916 78.2528 45.4916C77.946 45.4916 77.7158 45.5376 77.5623 45.6297C77.4089 45.7217 77.2401 45.8905 77.056 46.136H76.3655V37.9421H77.1941C77.501 39.2924 77.8539 40.4279 78.2528 41.3486C78.6518 42.2692 79.1121 43.0211 79.6338 43.6042C80.1555 44.1873 80.7693 44.6169 81.4752 44.8931C82.181 45.1386 82.9789 45.2614 83.8689 45.2614C85.2499 45.2614 86.324 44.9238 87.0912 44.2487C87.8891 43.5735 88.2881 42.6528 88.2881 41.4867C88.2881 39.9215 87.3674 38.6173 85.5261 37.5739L82.4879 35.8246C81.3524 35.1801 80.3857 34.5664 79.5878 33.9833C78.8206 33.4002 78.1915 32.8171 77.7004 32.234C77.2094 31.6202 76.8565 30.9911 76.6417 30.3467C76.4269 29.7022 76.3195 29.0117 76.3195 28.2752C76.3195 27.3238 76.4882 26.4492 76.8258 25.6513C77.1941 24.8534 77.6851 24.1629 78.2989 23.5798C78.9433 22.9967 79.7106 22.5517 80.6005 22.2448C81.4905 21.9379 82.4725 21.7845 83.5467 21.7845C84.7742 21.7845 85.9557 21.9993 87.0912 22.429C87.7357 22.7051 88.2267 22.8432 88.5643 22.8432C88.687 22.8432 88.7791 22.8126 88.8405 22.7512C88.9018 22.6898 89.0553 22.5517 89.3008 22.3369L89.3468 22.2448H89.9913L90.1754 29.426H89.3468Z" fill="white"/>
<path d="M109.916 29.426C109.333 27.063 108.612 25.3904 107.753 24.4084C106.894 23.4263 105.712 22.9353 104.208 22.9353C102.981 22.9353 101.999 23.2729 101.262 23.948C100.526 24.5925 100.157 25.4518 100.157 26.5259C100.157 28.0296 100.909 29.2265 102.413 30.1165L108.075 33.4769C109.671 34.4283 110.806 35.3796 111.482 36.331C112.157 37.2516 112.494 38.3718 112.494 39.6914C112.494 40.612 112.295 41.4867 111.896 42.3153C111.497 43.1439 110.96 43.8651 110.285 44.4788C109.64 45.0619 108.873 45.5376 107.983 45.9059C107.093 46.2434 106.142 46.4122 105.129 46.4122C104.577 46.4122 103.978 46.3662 103.334 46.2741C102.689 46.2127 101.983 46.09 101.216 45.9059C100.602 45.7524 100.127 45.645 99.7892 45.5836C99.4516 45.5222 99.1294 45.4916 98.8225 45.4916C98.5156 45.4916 98.2854 45.5376 98.132 45.6297C97.9786 45.7217 97.8098 45.8905 97.6256 46.136H96.9351V37.9421H97.7637C98.0706 39.2924 98.4235 40.4279 98.8225 41.3486C99.2215 42.2692 99.6818 43.0211 100.203 43.6042C100.725 44.1873 101.339 44.6169 102.045 44.8931C102.751 45.1386 103.549 45.2614 104.439 45.2614C105.82 45.2614 106.894 44.9238 107.661 44.2487C108.459 43.5735 108.858 42.6528 108.858 41.4867C108.858 39.9215 107.937 38.6173 106.096 37.5739L103.058 35.8246C101.922 35.1801 100.955 34.5664 100.157 33.9833C99.3902 33.4002 98.7611 32.8171 98.2701 32.234C97.7791 31.6202 97.4262 30.9911 97.2113 30.3467C96.9965 29.7022 96.8891 29.0117 96.8891 28.2752C96.8891 27.3238 97.0579 26.4492 97.3955 25.6513C97.7637 24.8534 98.2548 24.1629 98.8685 23.5798C99.513 22.9967 100.28 22.5517 101.17 22.2448C102.06 21.9379 103.042 21.7845 104.116 21.7845C105.344 21.7845 106.525 21.9993 107.661 22.429C108.305 22.7051 108.796 22.8432 109.134 22.8432C109.257 22.8432 109.349 22.8126 109.41 22.7512C109.472 22.6898 109.625 22.5517 109.87 22.3369L109.916 22.2448H110.561L110.745 29.426H109.916Z" fill="white"/>
<path d="M130.525 12.3017C131.446 12.0868 132.259 11.9027 132.965 11.7493C133.701 11.5651 134.392 11.381 135.036 11.1969C135.711 11.0127 136.356 10.8286 136.97 10.6445C137.583 10.4603 138.228 10.2455 138.903 10L139.133 10.1381V41.4867C139.133 42.2232 139.179 42.8216 139.271 43.282C139.363 43.7116 139.548 44.0645 139.824 44.3407C140.1 44.5862 140.484 44.7704 140.975 44.8931C141.496 45.0159 142.171 45.1079 143 45.1693V45.9059H130.663V45.1693C131.492 45.0773 132.167 44.9699 132.689 44.8471C133.21 44.6937 133.625 44.4788 133.931 44.2026C134.238 43.8957 134.438 43.5121 134.53 43.0518C134.653 42.5915 134.714 42.0084 134.714 41.3025V16.2605C134.714 15.033 134.545 14.2044 134.208 13.7747C133.901 13.3144 133.333 13.0842 132.504 13.0842C132.259 13.0842 131.983 13.0996 131.676 13.1303C131.4 13.1303 131.123 13.1456 130.847 13.1763H130.525V12.3017Z" fill="white"/>
<path fill-rule="evenodd" clip-rule="evenodd" d="M124.778 41.0724V22.3829L124.548 22.2448L116.446 25.1449V25.9275L116.814 25.8814C117.152 25.8201 117.474 25.774 117.781 25.7433C118.119 25.7126 118.41 25.6973 118.656 25.6973C119.269 25.6973 119.699 25.9428 119.945 26.4338C120.221 26.8942 120.359 27.7074 120.359 28.8736V41.0724C120.359 42.0237 120.313 42.7909 120.221 43.374C120.129 43.9264 119.929 44.3714 119.622 44.709C119.346 45.0159 118.932 45.246 118.379 45.3995C117.858 45.5222 117.137 45.6143 116.216 45.6757V46.4122H128.691V45.6757C127.801 45.5836 127.095 45.4762 126.573 45.3535C126.082 45.2307 125.699 45.0159 125.423 44.709C125.146 44.3714 124.962 43.9264 124.87 43.374C124.809 42.7909 124.778 42.0237 124.778 41.0724Z" fill="white"/>
<path d="M122.154 10.5064C122.891 10.5064 123.52 10.7826 124.042 11.335C124.563 11.8567 124.824 12.4858 124.824 13.2223C124.824 13.9895 124.563 14.634 124.042 15.1557C123.55 15.6467 122.906 15.8922 122.108 15.8922C121.341 15.8922 120.712 15.6467 120.221 15.1557C119.73 14.634 119.484 13.9895 119.484 13.2223C119.484 12.4858 119.745 11.8567 120.267 11.335C120.788 10.7826 121.418 10.5064 122.154 10.5064Z" fill="#F27421"/>
</svg>
