<svg width="210" height="90" viewBox="0 0 210 90" fill="none" xmlns="http://www.w3.org/2000/svg">
<path d="M0 0H210V90H0L81.7956 0H0Z" fill="#F27421"/>
<path d="M77.4926 42.1761C78.1096 42.0218 78.6623 41.8676 79.1507 41.7134C79.6649 41.5591 80.1661 41.4049 80.6546 41.2506C81.143 41.0964 81.6186 40.9422 82.0813 40.7879C82.5697 40.608 83.0967 40.4152 83.6623 40.2095L83.9708 40.2866V43.6028C84.8962 42.9087 85.6803 42.3432 86.3229 41.9062C86.9656 41.4434 87.5311 41.0964 88.0196 40.865C88.5337 40.608 88.9964 40.4409 89.4077 40.3637C89.8191 40.2609 90.2689 40.2095 90.7574 40.2095C93.1481 40.2095 94.7034 41.4563 95.4231 43.9499C96.6571 42.6388 97.8396 41.6877 98.9707 41.0964C100.127 40.5051 101.349 40.2095 102.634 40.2095C106.053 40.2095 107.762 42.8059 107.762 47.9987V57.0989C107.762 58.7698 108.405 59.6439 109.69 59.721L110.809 59.8367V60.4536H101.169V59.8367C101.811 59.7595 102.313 59.6696 102.672 59.5667C103.058 59.4382 103.341 59.2711 103.521 59.0655C103.726 58.8341 103.855 58.5256 103.906 58.14C103.984 57.7544 104.022 57.2403 104.022 56.5976V47.3431C104.022 46.4177 103.971 45.6465 103.868 45.0295C103.765 44.4126 103.585 43.9241 103.328 43.5642C103.071 43.1786 102.724 42.9087 102.287 42.7545C101.876 42.5745 101.361 42.4846 100.744 42.4846C99.7162 42.4846 98.8293 42.7031 98.0838 43.1401C97.3383 43.5514 96.6314 44.2326 95.963 45.1838V56.2891C95.963 56.9575 96.0015 57.5231 96.0787 57.9858C96.1815 58.4228 96.3486 58.7827 96.58 59.0655C96.837 59.3225 97.1712 59.5153 97.5825 59.6439C97.9938 59.7467 98.508 59.811 99.1249 59.8367V60.4536H89.2535V59.8367C89.8705 59.7853 90.3718 59.7081 90.7574 59.6053C91.1687 59.5025 91.4771 59.3354 91.6828 59.104C91.9142 58.8727 92.0684 58.5642 92.1455 58.1786C92.2226 57.793 92.2612 57.2917 92.2612 56.6747V47.1118C92.2612 44.027 91.3101 42.4846 89.4077 42.4846C88.5851 42.4846 87.724 42.6645 86.8242 43.0244C85.9502 43.3843 85.2561 43.8213 84.742 44.3355C84.3564 44.7725 84.1636 45.0295 84.1636 45.1067V57.5231C84.1636 58.3971 84.3564 58.9883 84.742 59.2968C85.1533 59.6053 85.9502 59.7853 87.1327 59.8367V60.4536H77.377V59.8367C77.9939 59.811 78.4952 59.7467 78.8808 59.6439C79.2921 59.541 79.6134 59.3739 79.8448 59.1426C80.0762 58.9112 80.2304 58.6027 80.3075 58.2171C80.4104 57.8058 80.4618 57.3045 80.4618 56.7133V45.5694C80.4618 44.4897 80.3461 43.757 80.1147 43.3714C79.9091 42.9601 79.5106 42.7545 78.9194 42.7545C78.6623 42.7545 78.4309 42.7802 78.2253 42.8316C78.0453 42.8573 77.8011 42.8959 77.4926 42.9473V42.1761Z" fill="white"/>
<path d="M127.229 55.8264C127.229 56.8033 127.319 57.4845 127.499 57.8701C127.679 58.23 128.026 58.4099 128.54 58.4099C129.132 58.4099 129.774 58.14 130.468 57.6002V58.7184C129.723 59.541 129.067 60.1066 128.502 60.4151C127.936 60.7236 127.281 60.8778 126.535 60.8778C125.636 60.8778 124.967 60.6336 124.53 60.1451C124.119 59.631 123.862 58.7827 123.759 57.6002C122.422 58.757 121.253 59.5925 120.25 60.1066C119.247 60.6207 118.271 60.8778 117.319 60.8778C115.931 60.8778 114.8 60.4408 113.926 59.5667C113.078 58.6927 112.654 57.5616 112.654 56.1734C112.654 55.4794 112.782 54.7853 113.039 54.0912C113.322 53.3714 113.72 52.793 114.235 52.356C114.697 51.9447 115.121 51.5976 115.507 51.3149C115.918 51.0064 116.445 50.6979 117.088 50.3894C117.731 50.0552 118.566 49.6825 119.594 49.2712C120.623 48.8599 121.985 48.3072 123.682 47.6131V44.7982C123.682 43.59 123.386 42.6774 122.795 42.0604C122.229 41.4434 121.407 41.135 120.327 41.135C119.427 41.135 118.669 41.3535 118.052 41.7905C117.461 42.2018 117.165 42.7031 117.165 43.2943C117.165 43.5257 117.191 43.8213 117.242 44.1812C117.319 44.5411 117.358 44.8367 117.358 45.0681C117.358 45.5822 117.152 46.0193 116.741 46.3791C116.355 46.739 115.905 46.919 115.391 46.919C114.877 46.919 114.427 46.739 114.042 46.3791C113.682 45.9935 113.502 45.5437 113.502 45.0295C113.502 44.464 113.656 43.8856 113.965 43.2943C114.299 42.7031 114.749 42.1761 115.314 41.7134C115.905 41.1992 116.69 40.8008 117.666 40.518C118.669 40.2352 119.749 40.0938 120.905 40.0938C122.242 40.0938 123.36 40.3252 124.26 40.7879C125.186 41.2249 125.893 41.8419 126.381 42.6388C126.689 43.1529 126.908 43.757 127.037 44.4511C127.165 45.1195 127.229 46.0321 127.229 47.1889V55.8264ZM123.682 48.6928C122.345 49.1812 121.201 49.6568 120.25 50.1195C119.324 50.5565 118.566 51.0192 117.975 51.5077C117.409 51.9704 116.998 52.4717 116.741 53.0115C116.484 53.5513 116.355 54.1426 116.355 54.7853V54.9781C116.355 55.4408 116.432 55.8907 116.587 56.3277C116.741 56.739 116.947 57.0989 117.204 57.4074C117.486 57.7159 117.808 57.9601 118.168 58.14C118.528 58.32 118.9 58.4099 119.286 58.4099C119.749 58.4099 120.263 58.32 120.828 58.14C121.42 57.9344 121.972 57.6901 122.486 57.4074C123.001 57.1246 123.322 56.829 123.45 56.5205C123.605 56.212 123.682 55.7236 123.682 55.0552V48.6928Z" fill="white"/>
<path d="M143.843 46.6491C143.354 44.6696 142.75 43.2686 142.03 42.446C141.311 41.6234 140.321 41.2121 139.061 41.2121C138.033 41.2121 137.21 41.4949 136.593 42.0604C135.977 42.6002 135.668 43.32 135.668 44.2198C135.668 45.4794 136.298 46.482 137.557 47.2275L142.3 50.0424C143.637 50.8393 144.588 51.6362 145.154 52.4331C145.719 53.2043 146.002 54.1426 146.002 55.248C146.002 56.0192 145.835 56.7518 145.501 57.4459C145.167 58.14 144.717 58.7441 144.151 59.2583C143.611 59.7467 142.969 60.1452 142.223 60.4536C141.478 60.7364 140.681 60.8778 139.833 60.8778C139.37 60.8778 138.869 60.8392 138.329 60.7621C137.789 60.7107 137.198 60.6079 136.555 60.4536C136.041 60.3251 135.642 60.2351 135.36 60.1837C135.077 60.1323 134.807 60.1066 134.55 60.1066C134.293 60.1066 134.1 60.1452 133.971 60.2223C133.843 60.2994 133.701 60.4408 133.547 60.6464H132.969V53.7827H133.663C133.92 54.9138 134.216 55.865 134.55 56.6362C134.884 57.4074 135.27 58.0372 135.707 58.5256C136.144 59.014 136.658 59.3739 137.249 59.6053C137.84 59.811 138.509 59.9138 139.254 59.9138C140.411 59.9138 141.311 59.631 141.953 59.0655C142.622 58.4999 142.956 57.7287 142.956 56.7519C142.956 55.4408 142.185 54.3483 140.642 53.4742L138.097 52.0089C137.146 51.4691 136.336 50.955 135.668 50.4665C135.025 49.9781 134.498 49.4897 134.087 49.0012C133.676 48.4871 133.38 47.9601 133.2 47.4203C133.02 46.8804 132.93 46.302 132.93 45.6851C132.93 44.8882 133.072 44.1555 133.354 43.4871C133.663 42.8188 134.074 42.2403 134.588 41.7519C135.128 41.2635 135.771 40.8907 136.516 40.6337C137.262 40.3766 138.084 40.2481 138.984 40.2481C140.012 40.2481 141.002 40.428 141.953 40.7879C142.493 41.0193 142.905 41.135 143.187 41.135C143.29 41.135 143.367 41.1092 143.419 41.0578C143.47 41.0064 143.599 40.8907 143.804 40.7108L143.843 40.6337H144.383L144.537 46.6491H143.843Z" fill="white"/>
<path d="M161.073 46.6491C160.585 44.6696 159.981 43.2686 159.261 42.446C158.541 41.6234 157.551 41.2121 156.292 41.2121C155.263 41.2121 154.441 41.4949 153.824 42.0604C153.207 42.6002 152.898 43.32 152.898 44.2198C152.898 45.4794 153.528 46.482 154.788 47.2275L159.531 50.0424C160.868 50.8393 161.819 51.6362 162.384 52.4331C162.95 53.2043 163.233 54.1426 163.233 55.248C163.233 56.0192 163.066 56.7518 162.731 57.4459C162.397 58.14 161.947 58.7441 161.382 59.2583C160.842 59.7467 160.199 60.1452 159.454 60.4536C158.708 60.7364 157.911 60.8778 157.063 60.8778C156.6 60.8778 156.099 60.8392 155.559 60.7621C155.019 60.7107 154.428 60.6079 153.785 60.4536C153.271 60.3251 152.873 60.2351 152.59 60.1837C152.307 60.1323 152.037 60.1066 151.78 60.1066C151.523 60.1066 151.33 60.1452 151.202 60.2223C151.073 60.2994 150.932 60.4408 150.778 60.6464H150.199V53.7827H150.893C151.15 54.9138 151.446 55.865 151.78 56.6362C152.114 57.4074 152.5 58.0372 152.937 58.5256C153.374 59.014 153.888 59.3739 154.479 59.6053C155.071 59.811 155.739 59.9138 156.485 59.9138C157.641 59.9138 158.541 59.631 159.184 59.0655C159.852 58.4999 160.186 57.7287 160.186 56.7519C160.186 55.4408 159.415 54.3483 157.873 53.4742L155.328 52.0089C154.377 51.4691 153.567 50.955 152.898 50.4665C152.256 49.9781 151.729 49.4897 151.317 49.0012C150.906 48.4871 150.611 47.9601 150.431 47.4203C150.251 46.8804 150.161 46.302 150.161 45.6851C150.161 44.8882 150.302 44.1555 150.585 43.4871C150.893 42.8188 151.305 42.2403 151.819 41.7519C152.359 41.2635 153.001 40.8907 153.747 40.6337C154.492 40.3766 155.315 40.2481 156.215 40.2481C157.243 40.2481 158.233 40.428 159.184 40.7879C159.724 41.0193 160.135 41.135 160.418 41.135C160.521 41.135 160.598 41.1092 160.649 41.0578C160.7 41.0064 160.829 40.8907 161.035 40.7108L161.073 40.6337H161.613L161.767 46.6491H161.073Z" fill="white"/>
<path d="M178.336 32.3047C179.107 32.1247 179.789 31.9705 180.38 31.8419C180.997 31.6877 181.575 31.5335 182.115 31.3792C182.681 31.225 183.221 31.0707 183.735 30.9165C184.249 30.7623 184.789 30.5823 185.354 30.3766L185.547 30.4923V56.7519C185.547 57.3688 185.586 57.8701 185.663 58.2557C185.74 58.6156 185.894 58.9112 186.125 59.1426C186.357 59.3482 186.678 59.5025 187.089 59.6053C187.526 59.7081 188.092 59.7853 188.786 59.8367V60.4536H178.452V59.8367C179.146 59.7595 179.712 59.6696 180.149 59.5667C180.586 59.4382 180.933 59.2583 181.19 59.0269C181.447 58.7698 181.614 58.4485 181.691 58.0629C181.794 57.6773 181.845 57.1889 181.845 56.5976V35.6208C181.845 34.5926 181.704 33.8985 181.421 33.5386C181.164 33.153 180.688 32.9602 179.994 32.9602C179.789 32.9602 179.557 32.973 179.3 32.9987C179.069 32.9987 178.838 33.0116 178.606 33.0373H178.336V32.3047Z" fill="white"/>
<path fill-rule="evenodd" clip-rule="evenodd" d="M173.522 56.4048V40.7494L173.329 40.6337L166.543 43.063V43.7185L166.851 43.6799C167.134 43.6285 167.404 43.59 167.661 43.5642C167.944 43.5385 168.188 43.5257 168.394 43.5257C168.908 43.5257 169.268 43.7313 169.473 44.1427C169.705 44.5283 169.82 45.2095 169.82 46.1863V56.4048C169.82 57.2017 169.782 57.8444 169.705 58.3328C169.628 58.7955 169.461 59.1683 169.203 59.4511C168.972 59.7081 168.625 59.9009 168.162 60.0295C167.725 60.1323 167.121 60.2094 166.35 60.2608V60.8778H176.8V60.2608C176.054 60.1837 175.463 60.0937 175.026 59.9909C174.615 59.8881 174.293 59.7081 174.062 59.4511C173.831 59.1683 173.676 58.7955 173.599 58.3328C173.548 57.8444 173.522 57.2017 173.522 56.4048Z" fill="white"/>
<path d="M171.324 30.8008C171.941 30.8008 172.468 31.0322 172.905 31.4949C173.342 31.9319 173.561 32.4589 173.561 33.0759C173.561 33.7185 173.342 34.2584 172.905 34.6954C172.494 35.1067 171.954 35.3124 171.286 35.3124C170.643 35.3124 170.116 35.1067 169.705 34.6954C169.293 34.2584 169.088 33.7185 169.088 33.0759C169.088 32.4589 169.306 31.9319 169.743 31.4949C170.18 31.0322 170.707 30.8008 171.324 30.8008Z" fill="white"/>
</svg>
