<svg width="45" height="46" viewBox="0 0 45 46" fill="none" xmlns="http://www.w3.org/2000/svg">
<path fill-rule="evenodd" clip-rule="evenodd" d="M42.0704 16.3759C37.3889 7.92304 29.4823 5.89566 23.6467 6.81405L23.3599 4.90548C29.818 3.88665 38.5559 6.11584 43.7102 15.4231L42.0704 16.3759Z" fill="white"/>
<path d="M22.5 45.6186C10.0934 45.6186 0 35.3113 0 22.6417C0 16.5212 2.34293 10.8081 6.59722 6.55485C10.8254 2.32812 16.4731 0 22.5 0C28.5268 0 34.1744 2.32812 38.4028 6.55485C42.6571 10.8081 45 16.5212 45 22.6417C45 35.3113 34.9066 45.6186 22.5 45.6186ZM22.5 1.93068C16.9707 1.93068 11.7926 4.06312 7.91968 7.9346C4.03172 11.8217 1.89063 17.0446 1.89063 22.6417C1.89063 34.2465 11.136 43.6879 22.5 43.6879C33.864 43.6879 43.1094 34.2465 43.1094 22.6417C43.1094 17.0446 40.9683 11.8217 37.08 7.9346C33.2073 4.06312 28.0293 1.93068 22.5 1.93068Z" fill="white"/>
<path fill-rule="evenodd" clip-rule="evenodd" d="M24.0677 29.3889C17.6259 29.3889 12.3581 23.9982 12.325 17.3717C12.2918 10.7116 17.0464 5.55212 23.8878 4.82504L24.0821 6.74042C17.2268 7.46905 14.1823 12.6002 14.2061 17.362C14.2338 22.9317 18.6578 27.4629 24.0675 27.4629C26.7746 27.4629 29.2989 26.3627 31.1761 24.3641L32.5318 25.6994C30.2972 28.0788 27.2912 29.3889 24.0677 29.3889Z" fill="white"/>
<path fill-rule="evenodd" clip-rule="evenodd" d="M19.5831 41.0859V39.1561C23.3852 39.1561 26.6941 37.878 28.8999 35.557C30.6719 33.6924 31.5735 31.2842 31.5075 28.5924C31.368 22.9063 27.0369 18.4519 21.6473 18.4519C18.941 18.4519 16.417 19.5544 14.5402 21.5565L13.1847 20.2185C15.4194 17.8349 18.4249 16.5221 21.6473 16.5221C28.0653 16.5221 33.2224 21.8027 33.3877 28.5442C33.4668 31.768 32.3805 34.6588 30.2466 36.9042C27.6836 39.6008 23.8966 41.0859 19.5831 41.0859Z" fill="white"/>
<path fill-rule="evenodd" clip-rule="evenodd" d="M18.9128 41.086C5.80872 41.086 1.88451 31.8713 1.71973 31.4682L3.45113 30.7048C3.60271 31.0688 7.30964 39.6118 19.9913 39.115L20.0637 41.0627C19.6724 41.0784 19.2888 41.086 18.9128 41.086Z" fill="white"/>
<path d="M23.5032 15.4986C21.6066 15.4986 20.0637 13.9245 20.0637 11.9895C20.0637 10.0545 21.6066 8.48038 23.5032 8.48038C25.3998 8.48038 26.9427 10.0545 26.9427 11.9895C26.9427 13.9243 25.3998 15.4986 23.5032 15.4986ZM23.5032 10.427C22.6588 10.427 21.9719 11.1277 21.9719 11.9893C21.9719 12.851 22.6588 13.5517 23.5032 13.5517C24.3476 13.5517 25.0346 12.851 25.0346 11.9893C25.0346 11.1277 24.3474 10.427 23.5032 10.427Z" fill="white"/>
<path d="M8.1688 18.7153C6.2722 18.7153 4.72931 17.1412 4.72931 15.2062C4.72931 13.2712 6.2722 11.6971 8.1688 11.6971C10.0654 11.6971 11.6083 13.2712 11.6083 15.2062C11.6083 17.141 10.0654 18.7153 8.1688 18.7153ZM8.1688 13.6437C7.32443 13.6437 6.63745 14.3444 6.63745 15.206C6.63745 16.0677 7.32443 16.7684 8.1688 16.7684C9.01317 16.7684 9.70015 16.0677 9.70015 15.206C9.70015 14.3444 9.01317 13.6437 8.1688 13.6437Z" fill="white"/>
<path d="M33.3201 19.7388C30.8308 19.7388 28.8057 17.6727 28.8057 15.1329C28.8057 12.5934 30.8308 10.5273 33.3201 10.5273C35.8093 10.5273 37.8344 12.5934 37.8344 15.1329C37.8344 17.6727 35.8093 19.7388 33.3201 19.7388ZM33.3201 12.4676C31.8794 12.4676 30.7075 13.6632 30.7075 15.1329C30.7075 16.6029 31.8794 17.7985 33.3201 17.7985C34.7607 17.7985 35.9326 16.6029 35.9326 15.1329C35.9326 13.6634 34.7607 12.4676 33.3201 12.4676Z" fill="white"/>
<path d="M8.24047 29.9737C5.75121 29.9737 3.72614 27.9077 3.72614 25.3682C3.72614 22.8284 5.75121 20.7623 8.24047 20.7623C10.7297 20.7623 12.7548 22.8284 12.7548 25.3682C12.7548 27.9077 10.7296 29.9737 8.24047 29.9737ZM8.24047 22.7026C6.79979 22.7026 5.62792 23.8982 5.62792 25.3682C5.62792 26.8377 6.79979 28.0334 8.24047 28.0334C9.68115 28.0334 10.853 26.8379 10.853 25.3682C10.853 23.8982 9.68099 22.7026 8.24047 22.7026Z" fill="white"/>
<path d="M38.1211 28.804C35.9874 28.804 34.2516 27.0332 34.2516 24.8563C34.2516 22.6793 35.9874 20.9085 38.1211 20.9085C40.2547 20.9085 41.9904 22.6793 41.9904 24.8563C41.9904 27.0332 40.2547 28.804 38.1211 28.804ZM38.1211 22.8333C37.0277 22.8333 36.1381 23.7406 36.1381 24.8564C36.1381 25.9722 37.0278 26.8796 38.1211 26.8796C39.2145 26.8796 40.1039 25.9722 40.1039 24.8564C40.1039 23.7406 39.2145 22.8333 38.1211 22.8333Z" fill="white"/>
<path d="M15.6209 36.992C13.4873 36.992 11.7516 35.2211 11.7516 33.0445C11.7516 30.8675 13.4873 29.0965 15.6209 29.0965C17.7546 29.0965 19.4904 30.8674 19.4904 33.0445C19.4904 35.2209 17.7546 36.992 15.6209 36.992ZM15.6209 31.0212C14.5276 31.0212 13.6379 31.9286 13.6379 33.0445C13.6379 34.1598 14.5276 35.0673 15.6209 35.0673C16.7143 35.0673 17.604 34.1598 17.604 33.0445C17.604 31.9286 16.7143 31.0212 15.6209 31.0212Z" fill="white"/>
</svg>
