<svg width="246" height="246" viewBox="0 0 246 246" fill="none" xmlns="http://www.w3.org/2000/svg">
<path fill-rule="evenodd" clip-rule="evenodd" d="M229.55 88.238C204.062 42.6916 161.015 31.7674 129.244 36.716L127.682 26.4321C162.842 20.9424 210.415 32.9538 238.478 83.104L229.55 88.238Z" fill="#1064EE" fill-opacity="0.76"/>
<path d="M123 245.806C55.4529 245.806 0.5 190.268 0.5 122C0.5 89.0208 13.256 58.2369 36.4182 35.3194C59.4385 12.5446 90.1868 0 123 0C155.812 0 186.561 12.5446 209.582 35.3194C232.744 58.2369 245.5 89.0208 245.5 122C245.5 190.268 190.547 245.806 123 245.806ZM123 10.4031C92.8958 10.4031 64.7039 21.8933 43.6183 42.7539C22.4505 63.6985 10.7934 91.841 10.7934 122C10.7934 184.53 61.1292 235.403 123 235.403C184.871 235.403 235.207 184.53 235.207 122C235.207 91.841 223.55 63.6985 202.38 42.7539C181.295 21.8933 153.104 10.4031 123 10.4031Z" fill="#1064EE" fill-opacity="0.76"/>
<path fill-rule="evenodd" clip-rule="evenodd" d="M131.535 158.356C96.463 158.356 67.7828 129.309 67.6027 93.6039C67.4219 57.7169 93.3082 29.9164 130.556 25.9987L131.614 36.3193C94.2901 40.2454 77.7145 67.8936 77.8441 93.5512C77.9953 123.562 102.081 147.978 131.534 147.978C146.273 147.978 160.016 142.05 170.236 131.281L177.618 138.476C165.451 151.297 149.085 158.356 131.535 158.356Z" fill="#1064EE" fill-opacity="0.76"/>
<path fill-rule="evenodd" clip-rule="evenodd" d="M107.119 221.383V210.985C127.82 210.985 145.835 204.098 157.844 191.591C167.491 181.544 172.4 168.568 172.041 154.064C171.281 123.426 147.701 99.4243 118.358 99.4243C103.623 99.4243 89.8817 105.365 79.6636 116.153L72.2834 108.943C84.4502 96.0998 100.813 89.0259 118.358 89.0259C153.3 89.0259 181.377 117.479 182.277 153.804C182.708 171.175 176.794 186.752 165.176 198.851C151.222 213.381 130.604 221.383 107.119 221.383Z" fill="#1064EE" fill-opacity="0.76"/>
<path fill-rule="evenodd" clip-rule="evenodd" d="M103.47 221.383C32.1253 221.383 10.7602 171.732 9.86304 169.56L19.2895 165.446C20.1148 167.408 40.297 213.44 109.342 210.763L109.736 221.258C107.605 221.342 105.517 221.383 103.47 221.383Z" fill="#1064EE" fill-opacity="0.76"/>
<path d="M128.462 83.511C118.136 83.511 109.736 75.0292 109.736 64.6028C109.736 54.1765 118.136 45.6947 128.462 45.6947C138.788 45.6947 147.188 54.1765 147.188 64.6028C147.188 75.0283 138.788 83.511 128.462 83.511ZM128.462 56.1836C123.865 56.1836 120.124 59.9593 120.124 64.602C120.124 69.2447 123.865 73.0204 128.462 73.0204C133.059 73.0204 136.799 69.2447 136.799 64.602C136.799 59.9593 133.058 56.1836 128.462 56.1836Z" fill="#1064EE" fill-opacity="0.76"/>
<path d="M44.9744 100.843C34.6484 100.843 26.2483 92.3616 26.2483 81.9353C26.2483 71.509 34.6484 63.0272 44.9744 63.0272C55.3004 63.0272 63.7005 71.509 63.7005 81.9353C63.7005 92.3608 55.3004 100.843 44.9744 100.843ZM44.9744 73.5161C40.3773 73.5161 36.6371 77.2918 36.6371 81.9345C36.6371 86.5771 40.3773 90.3528 44.9744 90.3528C49.5715 90.3528 53.3117 86.5771 53.3117 81.9345C53.3117 77.2918 49.5715 73.5161 44.9744 73.5161Z" fill="#1064EE" fill-opacity="0.76"/>
<path d="M181.909 106.358C168.357 106.358 157.331 95.2257 157.331 81.5405C157.331 67.857 168.357 56.7244 181.909 56.7244C195.462 56.7244 206.487 67.857 206.487 81.5405C206.487 95.2257 195.462 106.358 181.909 106.358ZM181.909 67.1793C174.066 67.1793 167.685 73.6214 167.685 81.5405C167.685 89.4613 174.066 95.9035 181.909 95.9035C189.753 95.9035 196.133 89.4613 196.133 81.5405C196.133 73.6223 189.753 67.1793 181.909 67.1793Z" fill="#1064EE" fill-opacity="0.76"/>
<path d="M45.3646 161.507C31.812 161.507 20.7866 150.374 20.7866 136.691C20.7866 123.006 31.812 111.873 45.3646 111.873C58.9173 111.873 69.9427 123.006 69.9427 136.691C69.9427 150.374 58.9164 161.507 45.3646 161.507ZM45.3646 122.328C37.521 122.328 31.1408 128.77 31.1408 136.691C31.1408 144.609 37.521 151.052 45.3646 151.052C53.2083 151.052 59.5885 144.61 59.5885 136.691C59.5885 128.77 53.2075 122.328 45.3646 122.328Z" fill="#1064EE" fill-opacity="0.76"/>
<path d="M208.048 155.204C196.431 155.204 186.981 145.663 186.981 133.933C186.981 122.203 196.431 112.661 208.048 112.661C219.664 112.661 229.115 122.203 229.115 133.933C229.115 145.663 219.664 155.204 208.048 155.204ZM208.048 123.032C202.095 123.032 197.252 127.921 197.252 133.934C197.252 139.946 202.096 144.835 208.048 144.835C214.001 144.835 218.844 139.946 218.844 133.934C218.844 127.921 214.001 123.032 208.048 123.032Z" fill="#1064EE" fill-opacity="0.76"/>
<path d="M85.5474 199.323C73.931 199.323 64.481 189.781 64.481 178.053C64.481 166.323 73.931 156.78 85.5474 156.78C97.1639 156.78 106.615 166.322 106.615 178.053C106.615 189.78 97.1639 199.323 85.5474 199.323ZM85.5474 167.151C79.5947 167.151 74.7508 172.04 74.7508 178.053C74.7508 184.063 79.5947 188.952 85.5474 188.952C91.5002 188.952 96.344 184.063 96.344 178.053C96.344 172.04 91.5002 167.151 85.5474 167.151Z" fill="#1064EE" fill-opacity="0.76"/>
</svg>
